<svg xmlns="http://www.w3.org/2000/svg" xmlns:xlink="http://www.w3.org/1999/xlink" width="500" zoomAndPan="magnify" viewBox="0 0 375 374.999991" height="500" preserveAspectRatio="xMidYMid meet" version="1.0"><defs><clipPath id="235cd412f3"><path d="M 102 113 L 276 113 L 276 286 L 102 286 Z M 102 113 " clip-rule="nonzero"/></clipPath><clipPath id="a6871de115"><path d="M 101.863281 187.800781 L 101.863281 210.808594 C 101.863281 252.230469 135.441406 285.808594 176.863281 285.808594 L 202.636719 285.808594 C 244.058594 285.808594 277.636719 252.230469 277.636719 210.808594 L 277.636719 187.800781 C 277.636719 146.378906 244.058594 112.800781 202.636719 112.800781 L 176.863281 112.800781 C 135.441406 112.800781 101.863281 146.378906 101.863281 187.800781 Z M 101.863281 187.800781 " clip-rule="nonzero"/></clipPath><clipPath id="dd1ed9ebef"><path d="M 131 73 L 140 73 L 140 82 L 131 82 Z M 131 73 " clip-rule="nonzero"/></clipPath><clipPath id="f39e9eb60b"><path d="M 96.8125 87.097656 L 171.195312 61.230469 L 187.699219 108.695312 L 113.320312 134.5625 Z M 96.8125 87.097656 " clip-rule="nonzero"/></clipPath><clipPath id="72d6e49dae"><path d="M 96.8125 87.097656 L 171.195312 61.230469 L 187.699219 108.695312 L 113.320312 134.5625 Z M 96.8125 87.097656 " clip-rule="nonzero"/></clipPath><clipPath id="6fb85d670e"><path d="M 115 85 L 123 85 L 123 94 L 115 94 Z M 115 85 " clip-rule="nonzero"/></clipPath><clipPath id="758f87e3f8"><path d="M 96.8125 87.097656 L 171.195312 61.230469 L 187.699219 108.695312 L 113.320312 134.5625 Z M 96.8125 87.097656 " clip-rule="nonzero"/></clipPath><clipPath id="dc111531da"><path d="M 96.8125 87.097656 L 171.195312 61.230469 L 187.699219 108.695312 L 113.320312 134.5625 Z M 96.8125 87.097656 " clip-rule="nonzero"/></clipPath><clipPath id="a515acc3df"><path d="M 151 73 L 159 73 L 159 81 L 151 81 Z M 151 73 " clip-rule="nonzero"/></clipPath><clipPath id="34d271577f"><path d="M 96.8125 87.097656 L 171.195312 61.230469 L 187.699219 108.695312 L 113.320312 134.5625 Z M 96.8125 87.097656 " clip-rule="nonzero"/></clipPath><clipPath id="eaa50126d0"><path d="M 96.8125 87.097656 L 171.195312 61.230469 L 187.699219 108.695312 L 113.320312 134.5625 Z M 96.8125 87.097656 " clip-rule="nonzero"/></clipPath><clipPath id="3c897d05eb"><path d="M 109 82 L 174 82 L 174 124 L 109 124 Z M 109 82 " clip-rule="nonzero"/></clipPath><clipPath id="f5842a679a"><path d="M 96.8125 87.097656 L 171.195312 61.230469 L 187.699219 108.695312 L 113.320312 134.5625 Z M 96.8125 87.097656 " clip-rule="nonzero"/></clipPath><clipPath id="52ea3af562"><path d="M 96.8125 87.097656 L 171.195312 61.230469 L 187.699219 108.695312 L 113.320312 134.5625 Z M 96.8125 87.097656 " clip-rule="nonzero"/></clipPath><clipPath id="2853e27348"><path d="M 102 99 L 111 99 L 111 107 L 102 107 Z M 102 99 " clip-rule="nonzero"/></clipPath><clipPath id="a4d1f54bb1"><path d="M 96.8125 87.097656 L 171.195312 61.230469 L 187.699219 108.695312 L 113.320312 134.5625 Z M 96.8125 87.097656 " clip-rule="nonzero"/></clipPath><clipPath id="e27ce32a3a"><path d="M 96.8125 87.097656 L 171.195312 61.230469 L 187.699219 108.695312 L 113.320312 134.5625 Z M 96.8125 87.097656 " clip-rule="nonzero"/></clipPath><clipPath id="fc0eebfa72"><path d="M 169 76 L 178 76 L 178 84 L 169 84 Z M 169 76 " clip-rule="nonzero"/></clipPath><clipPath id="591da4078c"><path d="M 96.8125 87.097656 L 171.195312 61.230469 L 187.699219 108.695312 L 113.320312 134.5625 Z M 96.8125 87.097656 " clip-rule="nonzero"/></clipPath><clipPath id="da28a67ed7"><path d="M 96.8125 87.097656 L 171.195312 61.230469 L 187.699219 108.695312 L 113.320312 134.5625 Z M 96.8125 87.097656 " clip-rule="nonzero"/></clipPath><clipPath id="8bc7f368e8"><path d="M 125 108 L 174 108 L 174 130 L 125 130 Z M 125 108 " clip-rule="nonzero"/></clipPath><clipPath id="221db5603a"><path d="M 96.8125 87.097656 L 171.195312 61.230469 L 187.699219 108.695312 L 113.320312 134.5625 Z M 96.8125 87.097656 " clip-rule="nonzero"/></clipPath><clipPath id="834b742dc8"><path d="M 96.8125 87.097656 L 171.195312 61.230469 L 187.699219 108.695312 L 113.320312 134.5625 Z M 96.8125 87.097656 " clip-rule="nonzero"/></clipPath></defs><g clip-path="url(#235cd412f3)"><g clip-path="url(#a6871de115)"><path fill="#000000" d="M 275.691406 212.488281 C 277.625 177.21875 265.445312 128.882812 227.039062 116.507812 C 221.125 114.53125 214.203125 113.351562 206.378906 113.074219 C 199.417969 112.828125 193.199219 113.335938 187.925781 114.707031 C 182.542969 115.972656 178.117188 118 174.648438 120.578125 C 171.070312 123.257812 168.34375 126.382812 166.574219 130.167969 C 164.59375 133.734375 163.574219 137.855469 163.417969 142.210938 C 163.191406 148.441406 164.742188 153.691406 167.851562 157.957031 C 171.066406 162.332031 175.175781 166.113281 180.386719 169.417969 C 185.488281 172.820312 191.582031 175.839844 198.226562 178.675781 C 204.878906 181.40625 211.738281 184.246094 218.597656 187.1875 C 225.5625 190.242188 232.414062 193.394531 239.140625 196.957031 C 245.976562 200.523438 251.917969 204.789062 256.960938 209.746094 C 262.113281 214.710938 266.152344 220.464844 269.171875 227.222656 C 270.074219 229.332031 270.859375 231.648438 271.535156 233.957031 C 273.960938 227.183594 275.417969 220.066406 275.691406 212.488281 Z M 124.605469 138.03125 C 124.332031 139.582031 124.269531 141.246094 124.207031 143.007812 C 123.859375 152.558594 125.195312 160.710938 128.105469 167.570312 C 131.117188 174.535156 135.144531 180.496094 140.183594 185.660156 C 145.332031 190.730469 151.160156 195.089844 157.773438 198.757812 C 164.28125 202.414062 171.128906 205.671875 177.988281 208.617188 C 184.84375 211.558594 191.597656 214.398438 198.144531 217.019531 C 204.683594 219.742188 210.449219 222.753906 215.664062 226.054688 C 220.875 229.464844 224.980469 233.246094 227.984375 237.507812 C 231.097656 241.671875 232.542969 246.816406 232.324219 252.835938 C 232.109375 258.75 230.839844 263.796875 228.511719 267.976562 C 225.960938 272.25 222.789062 275.671875 218.453125 278.21875 C 214.214844 280.980469 209.359375 282.886719 203.546875 284.03125 C 197.949219 285.292969 191.621094 285.792969 184.664062 285.546875 C 175.425781 285.21875 167.308594 283.894531 160.324219 281.464844 C 153.222656 279.136719 147.117188 276.53125 141.988281 273.855469 L 141.132812 273.40625 C 117.277344 258.949219 101.855469 234.085938 102.859375 206.375 C 103.308594 185.085938 112.199219 162.019531 124.605469 138.03125 " fill-opacity="1" fill-rule="evenodd"/></g></g><g clip-path="url(#dd1ed9ebef)"><g clip-path="url(#f39e9eb60b)"><g clip-path="url(#72d6e49dae)"><path fill="#000000" d="M 138.792969 76.507812 C 138.960938 76.980469 139.027344 77.46875 138.996094 77.972656 C 138.96875 78.472656 138.84375 78.949219 138.625 79.402344 C 138.40625 79.851562 138.109375 80.246094 137.734375 80.578125 C 137.359375 80.914062 136.9375 81.164062 136.460938 81.328125 C 135.988281 81.492188 135.5 81.5625 135 81.53125 C 134.496094 81.503906 134.019531 81.378906 133.570312 81.160156 C 133.117188 80.941406 132.722656 80.644531 132.390625 80.269531 C 132.054688 79.894531 131.808594 79.46875 131.640625 78.996094 C 131.476562 78.519531 131.410156 78.035156 131.4375 77.53125 C 131.46875 77.03125 131.589844 76.554688 131.808594 76.101562 C 132.027344 75.648438 132.324219 75.257812 132.699219 74.921875 C 133.074219 74.589844 133.5 74.339844 133.972656 74.175781 C 134.449219 74.011719 134.9375 73.941406 135.4375 73.972656 C 135.9375 74 136.414062 74.125 136.867188 74.34375 C 137.320312 74.5625 137.710938 74.859375 138.046875 75.234375 C 138.378906 75.609375 138.628906 76.035156 138.792969 76.507812 Z M 138.792969 76.507812 " fill-opacity="1" fill-rule="nonzero"/></g></g></g><g clip-path="url(#6fb85d670e)"><g clip-path="url(#758f87e3f8)"><g clip-path="url(#dc111531da)"><path fill="#000000" d="M 122.699219 88.339844 C 122.863281 88.808594 122.929688 89.292969 122.902344 89.792969 C 122.875 90.289062 122.75 90.761719 122.53125 91.210938 C 122.316406 91.660156 122.019531 92.050781 121.648438 92.382812 C 121.277344 92.714844 120.855469 92.960938 120.382812 93.125 C 119.914062 93.289062 119.429688 93.355469 118.929688 93.328125 C 118.433594 93.300781 117.957031 93.175781 117.511719 92.957031 C 117.0625 92.742188 116.671875 92.445312 116.339844 92.074219 C 116.007812 91.703125 115.761719 91.28125 115.597656 90.808594 C 115.433594 90.335938 115.363281 89.851562 115.394531 89.355469 C 115.421875 88.859375 115.546875 88.382812 115.761719 87.933594 C 115.980469 87.488281 116.273438 87.097656 116.648438 86.765625 C 117.019531 86.433594 117.441406 86.1875 117.914062 86.023438 C 118.382812 85.859375 118.867188 85.789062 119.367188 85.820312 C 119.863281 85.847656 120.335938 85.972656 120.785156 86.1875 C 121.234375 86.40625 121.625 86.699219 121.957031 87.074219 C 122.289062 87.445312 122.535156 87.867188 122.699219 88.339844 Z M 122.699219 88.339844 " fill-opacity="1" fill-rule="nonzero"/></g></g></g><g clip-path="url(#a515acc3df)"><g clip-path="url(#34d271577f)"><g clip-path="url(#eaa50126d0)"><path fill="#000000" d="M 158.410156 75.917969 C 158.574219 76.386719 158.644531 76.871094 158.613281 77.371094 C 158.585938 77.867188 158.460938 78.34375 158.246094 78.792969 C 158.027344 79.238281 157.734375 79.628906 157.359375 79.960938 C 156.988281 80.292969 156.566406 80.542969 156.09375 80.707031 C 155.625 80.867188 155.140625 80.9375 154.640625 80.90625 C 154.144531 80.878906 153.671875 80.753906 153.222656 80.539062 C 152.773438 80.320312 152.382812 80.027344 152.050781 79.652344 C 151.71875 79.28125 151.46875 78.859375 151.308594 78.386719 C 151.144531 77.917969 151.074219 77.433594 151.105469 76.933594 C 151.132812 76.4375 151.257812 75.964844 151.472656 75.515625 C 151.691406 75.066406 151.984375 74.675781 152.359375 74.34375 C 152.730469 74.011719 153.152344 73.765625 153.625 73.601562 C 154.09375 73.4375 154.578125 73.367188 155.078125 73.398438 C 155.574219 73.425781 156.050781 73.550781 156.496094 73.765625 C 156.945312 73.984375 157.335938 74.277344 157.667969 74.652344 C 158 75.023438 158.25 75.445312 158.410156 75.917969 Z M 158.410156 75.917969 " fill-opacity="1" fill-rule="nonzero"/></g></g></g><g clip-path="url(#3c897d05eb)"><g clip-path="url(#f5842a679a)"><g clip-path="url(#52ea3af562)"><path fill="#000000" d="M 150.285156 110.730469 C 148.347656 111.292969 146.441406 112.019531 144.542969 112.699219 C 144.09375 112.859375 143.6875 113.007812 143.222656 113.214844 C 142.492188 113.535156 141.667969 113.824219 141.007812 114.109375 C 140.03125 114.535156 139.058594 114.964844 138.089844 115.402344 C 135.679688 116.484375 133.136719 117.796875 130.457031 119.347656 C 128.382812 120.546875 126.433594 121.882812 124.464844 123.242188 C 124.421875 123.273438 124.386719 123.269531 124.351562 123.234375 C 123.710938 122.585938 123.085938 121.921875 122.476562 121.246094 C 117.097656 115.257812 113.132812 110.863281 110.589844 108.0625 C 110.355469 107.804688 110.085938 107.554688 110 107.25 C 109.78125 106.492188 110.566406 106.21875 111.207031 106.328125 C 111.949219 106.460938 112.6875 106.609375 113.421875 106.777344 C 116.21875 107.402344 119.015625 108.035156 121.8125 108.671875 C 122.246094 108.769531 123.808594 109.203125 124.148438 109.046875 C 124.578125 108.847656 124.523438 108.429688 124.433594 107.988281 C 123.636719 104.15625 122.859375 100.320312 122.105469 96.476562 C 121.925781 95.578125 121.085938 93.398438 123.105469 94.097656 C 123.550781 94.253906 124.171875 94.554688 124.683594 94.753906 C 127.929688 96.027344 131.171875 97.304688 134.410156 98.589844 C 135.121094 98.871094 135.285156 98.511719 135.339844 97.863281 C 135.742188 93.148438 136.144531 88.429688 136.554688 83.710938 C 136.582031 83.394531 136.578125 82.894531 136.839844 82.714844 C 137.078125 82.550781 137.28125 82.6875 137.460938 82.882812 C 140.855469 86.523438 144.246094 90.171875 147.636719 93.824219 C 148.035156 94.25 148.550781 94.03125 148.804688 93.582031 C 150.839844 90.003906 152.882812 86.429688 154.925781 82.851562 C 155.304688 82.1875 155.976562 82.320312 156.285156 82.933594 C 158.140625 86.660156 160 90.382812 161.867188 94.105469 C 162.097656 94.5625 162.429688 95.652344 163.089844 95.539062 C 163.335938 95.496094 163.660156 95.0625 163.832031 94.851562 C 166.785156 91.25 169.292969 88.164062 171.363281 85.589844 C 171.621094 85.269531 171.933594 84.933594 172.332031 84.855469 C 172.765625 84.765625 173.242188 84.992188 173.207031 85.515625 C 172.765625 92.5 172.296875 99.480469 171.789062 106.457031 C 171.785156 106.558594 171.769531 106.65625 171.753906 106.753906 C 171.746094 106.785156 171.730469 106.800781 171.703125 106.808594 C 171.519531 106.851562 171.363281 106.875 171.242188 106.882812 C 166.203125 107.117188 161.214844 107.855469 156.28125 109.097656 C 154.652344 109.507812 153.242188 109.859375 151.722656 110.308594 C 151.242188 110.453125 150.765625 110.59375 150.285156 110.730469 Z M 150.285156 110.730469 " fill-opacity="1" fill-rule="nonzero"/></g></g></g><g clip-path="url(#2853e27348)"><g clip-path="url(#a4d1f54bb1)"><g clip-path="url(#e27ce32a3a)"><path fill="#000000" d="M 109.957031 101.945312 C 110.121094 102.417969 110.1875 102.902344 110.160156 103.402344 C 110.132812 103.902344 110.007812 104.375 109.789062 104.828125 C 109.570312 105.277344 109.277344 105.667969 108.902344 106 C 108.53125 106.332031 108.105469 106.582031 107.632812 106.746094 C 107.164062 106.910156 106.675781 106.976562 106.175781 106.949219 C 105.679688 106.917969 105.203125 106.796875 104.753906 106.578125 C 104.304688 106.359375 103.914062 106.066406 103.578125 105.691406 C 103.246094 105.316406 103 104.894531 102.835938 104.421875 C 102.671875 103.949219 102.601562 103.464844 102.632812 102.964844 C 102.660156 102.464844 102.785156 101.992188 103.003906 101.542969 C 103.21875 101.09375 103.515625 100.699219 103.890625 100.367188 C 104.261719 100.035156 104.683594 99.789062 105.15625 99.625 C 105.628906 99.460938 106.117188 99.390625 106.613281 99.421875 C 107.113281 99.449219 107.589844 99.574219 108.039062 99.789062 C 108.488281 100.007812 108.878906 100.304688 109.210938 100.675781 C 109.542969 101.050781 109.792969 101.472656 109.957031 101.945312 Z M 109.957031 101.945312 " fill-opacity="1" fill-rule="nonzero"/></g></g></g><g clip-path="url(#fc0eebfa72)"><g clip-path="url(#591da4078c)"><g clip-path="url(#da28a67ed7)"><path fill="#000000" d="M 177.109375 78.601562 C 177.273438 79.078125 177.339844 79.5625 177.3125 80.0625 C 177.285156 80.5625 177.160156 81.039062 176.941406 81.488281 C 176.722656 81.941406 176.425781 82.332031 176.054688 82.664062 C 175.679688 83 175.253906 83.246094 174.78125 83.410156 C 174.308594 83.574219 173.824219 83.644531 173.324219 83.613281 C 172.824219 83.585938 172.347656 83.460938 171.898438 83.242188 C 171.445312 83.027344 171.054688 82.730469 170.722656 82.355469 C 170.386719 81.980469 170.140625 81.558594 169.972656 81.085938 C 169.808594 80.613281 169.742188 80.125 169.769531 79.625 C 169.800781 79.125 169.921875 78.648438 170.140625 78.199219 C 170.359375 77.746094 170.65625 77.355469 171.03125 77.023438 C 171.40625 76.691406 171.828125 76.441406 172.300781 76.277344 C 172.773438 76.113281 173.261719 76.042969 173.761719 76.074219 C 174.261719 76.101562 174.738281 76.226562 175.1875 76.445312 C 175.636719 76.664062 176.03125 76.957031 176.363281 77.332031 C 176.695312 77.707031 176.945312 78.128906 177.109375 78.601562 Z M 177.109375 78.601562 " fill-opacity="1" fill-rule="nonzero"/></g></g></g><g clip-path="url(#8bc7f368e8)"><g clip-path="url(#221db5603a)"><g clip-path="url(#834b742dc8)"><path fill="#000000" d="M 150.082031 117.746094 C 143.027344 120.066406 136.1875 123.300781 129.925781 127.296875 C 128.777344 128.027344 127.691406 128.8125 126.617188 129.628906 C 126.585938 129.652344 126.5625 129.644531 126.546875 129.609375 L 125.105469 125.46875 C 125.09375 125.4375 125.101562 125.414062 125.125 125.394531 C 125.507812 125.070312 125.90625 124.761719 126.320312 124.472656 C 130.140625 121.773438 134.191406 119.46875 138.4375 117.507812 C 143.351562 115.230469 148.367188 113.328125 153.589844 111.890625 C 159.832031 110.167969 166.058594 109.03125 172.441406 108.902344 C 172.511719 108.902344 172.558594 108.933594 172.585938 109.003906 L 173.964844 113.007812 C 173.980469 113.050781 173.976562 113.089844 173.949219 113.125 C 173.925781 113.164062 173.890625 113.183594 173.847656 113.183594 C 168.9375 113.367188 164.132812 114.015625 159.4375 115.125 C 158.925781 115.246094 158.410156 115.339844 157.800781 115.519531 C 157.5625 115.589844 157.238281 115.585938 156.945312 115.6875 C 156.34375 115.894531 155.667969 116.007812 155.125 116.179688 C 154.453125 116.386719 153.777344 116.582031 153.101562 116.773438 C 152.085938 117.054688 151.132812 117.402344 150.082031 117.746094 Z M 150.082031 117.746094 " fill-opacity="1" fill-rule="nonzero"/></g></g></g></svg>