<svg xmlns="http://www.w3.org/2000/svg" xmlns:xlink="http://www.w3.org/1999/xlink" width="500" zoomAndPan="magnify" viewBox="0 0 375 374.999991" height="500" preserveAspectRatio="xMidYMid meet" version="1.0"><defs><clipPath id="0a6350809e"><path d="M 103 125.386719 L 272 125.386719 L 272 293 L 103 293 Z M 103 125.386719 " clip-rule="nonzero"/></clipPath><clipPath id="dfce23993e"><path d="M 102.292969 200.386719 L 102.292969 218.113281 C 102.292969 259.535156 135.871094 293.113281 177.292969 293.113281 L 197.707031 293.113281 C 239.128906 293.113281 272.707031 259.535156 272.707031 218.113281 L 272.707031 200.386719 C 272.707031 158.964844 239.128906 125.386719 197.707031 125.386719 L 177.292969 125.386719 C 135.871094 125.386719 102.292969 158.964844 102.292969 200.386719 Z M 102.292969 200.386719 " clip-rule="nonzero"/></clipPath><clipPath id="752ae0efc5"><path d="M 121 83 L 130 83 L 130 92 L 121 92 Z M 121 83 " clip-rule="nonzero"/></clipPath><clipPath id="eea506ea3f"><path d="M 86.675781 104.699219 L 160.195312 62.539062 L 187.058594 109.382812 L 113.539062 151.542969 Z M 86.675781 104.699219 " clip-rule="nonzero"/></clipPath><clipPath id="1511bf5883"><path d="M 86.675781 104.699219 L 160.195312 62.539062 L 187.058594 109.382812 L 113.539062 151.542969 Z M 86.675781 104.699219 " clip-rule="nonzero"/></clipPath><clipPath id="fc06673340"><path d="M 106 98 L 115 98 L 115 107 L 106 107 Z M 106 98 " clip-rule="nonzero"/></clipPath><clipPath id="dea9d0d620"><path d="M 86.675781 104.699219 L 160.195312 62.539062 L 187.058594 109.382812 L 113.539062 151.542969 Z M 86.675781 104.699219 " clip-rule="nonzero"/></clipPath><clipPath id="d8c2ee6ab5"><path d="M 86.675781 104.699219 L 160.195312 62.539062 L 187.058594 109.382812 L 113.539062 151.542969 Z M 86.675781 104.699219 " clip-rule="nonzero"/></clipPath><clipPath id="4c4bbb61aa"><path d="M 141 78 L 151 78 L 151 87 L 141 87 Z M 141 78 " clip-rule="nonzero"/></clipPath><clipPath id="a10e2bba8a"><path d="M 86.675781 104.699219 L 160.195312 62.539062 L 187.058594 109.382812 L 113.539062 151.542969 Z M 86.675781 104.699219 " clip-rule="nonzero"/></clipPath><clipPath id="e077b0a6ec"><path d="M 86.675781 104.699219 L 160.195312 62.539062 L 187.058594 109.382812 L 113.539062 151.542969 Z M 86.675781 104.699219 " clip-rule="nonzero"/></clipPath><clipPath id="17cf966afe"><path d="M 104 87 L 170 87 L 170 138 L 104 138 Z M 104 87 " clip-rule="nonzero"/></clipPath><clipPath id="1df9f29d58"><path d="M 86.675781 104.699219 L 160.195312 62.539062 L 187.058594 109.382812 L 113.539062 151.542969 Z M 86.675781 104.699219 " clip-rule="nonzero"/></clipPath><clipPath id="e59c05e2e9"><path d="M 86.675781 104.699219 L 160.195312 62.539062 L 187.058594 109.382812 L 113.539062 151.542969 Z M 86.675781 104.699219 " clip-rule="nonzero"/></clipPath><clipPath id="da978e1ac6"><path d="M 95 115 L 105 115 L 105 124 L 95 124 Z M 95 115 " clip-rule="nonzero"/></clipPath><clipPath id="da6920a831"><path d="M 86.675781 104.699219 L 160.195312 62.539062 L 187.058594 109.382812 L 113.539062 151.542969 Z M 86.675781 104.699219 " clip-rule="nonzero"/></clipPath><clipPath id="fc24f56753"><path d="M 86.675781 104.699219 L 160.195312 62.539062 L 187.058594 109.382812 L 113.539062 151.542969 Z M 86.675781 104.699219 " clip-rule="nonzero"/></clipPath><clipPath id="6bf52e09ac"><path d="M 162 77 L 171 77 L 171 86 L 162 86 Z M 162 77 " clip-rule="nonzero"/></clipPath><clipPath id="bba8b764cd"><path d="M 86.675781 104.699219 L 160.195312 62.539062 L 187.058594 109.382812 L 113.539062 151.542969 Z M 86.675781 104.699219 " clip-rule="nonzero"/></clipPath><clipPath id="41f19a9a76"><path d="M 86.675781 104.699219 L 160.195312 62.539062 L 187.058594 109.382812 L 113.539062 151.542969 Z M 86.675781 104.699219 " clip-rule="nonzero"/></clipPath><clipPath id="d8ebcb5743"><path d="M 124 112 L 174 112 L 174 144 L 124 144 Z M 124 112 " clip-rule="nonzero"/></clipPath><clipPath id="1237bd7258"><path d="M 86.675781 104.699219 L 160.195312 62.539062 L 187.058594 109.382812 L 113.539062 151.542969 Z M 86.675781 104.699219 " clip-rule="nonzero"/></clipPath><clipPath id="1cbe15965d"><path d="M 86.675781 104.699219 L 160.195312 62.539062 L 187.058594 109.382812 L 113.539062 151.542969 Z M 86.675781 104.699219 " clip-rule="nonzero"/></clipPath></defs><g clip-path="url(#0a6350809e)"><g clip-path="url(#dfce23993e)"><path fill="#ffbd0a" d="M 270.816406 222.027344 C 272.6875 187.835938 260.882812 140.976562 223.648438 128.976562 C 217.917969 127.0625 211.203125 125.917969 203.617188 125.648438 C 196.871094 125.410156 190.839844 125.902344 185.726562 127.234375 C 180.511719 128.460938 176.222656 130.425781 172.859375 132.925781 C 169.390625 135.523438 166.746094 138.550781 165.03125 142.21875 C 163.113281 145.679688 162.121094 149.671875 161.96875 153.898438 C 161.75 159.9375 163.253906 165.027344 166.269531 169.164062 C 169.386719 173.40625 173.367188 177.070312 178.421875 180.269531 C 183.367188 183.570312 189.277344 186.5 195.71875 189.246094 C 202.164062 191.894531 208.816406 194.648438 215.464844 197.5 C 222.21875 200.460938 228.859375 203.515625 235.382812 206.96875 C 242.007812 210.429688 247.765625 214.5625 252.65625 219.371094 C 257.652344 224.183594 261.566406 229.761719 264.492188 236.3125 C 265.367188 238.355469 266.132812 240.601562 266.789062 242.839844 C 269.136719 236.273438 270.546875 229.375 270.816406 222.027344 Z M 124.34375 149.847656 C 124.078125 151.347656 124.019531 152.960938 123.957031 154.667969 C 123.621094 163.925781 124.917969 171.832031 127.734375 178.480469 C 130.65625 185.230469 134.5625 191.011719 139.445312 196.019531 C 144.4375 200.933594 150.085938 205.164062 156.5 208.714844 C 162.808594 212.261719 169.445312 215.417969 176.09375 218.273438 C 182.742188 221.128906 189.289062 223.878906 195.636719 226.421875 C 201.976562 229.0625 207.566406 231.980469 212.621094 235.179688 C 217.671875 238.484375 221.65625 242.152344 224.5625 246.285156 C 227.582031 250.320312 228.984375 255.304688 228.773438 261.144531 C 228.5625 266.878906 227.332031 271.769531 225.074219 275.824219 C 222.601562 279.964844 219.527344 283.285156 215.324219 285.753906 C 211.214844 288.429688 206.507812 290.277344 200.875 291.386719 C 195.449219 292.609375 189.3125 293.097656 182.566406 292.855469 C 173.609375 292.539062 165.742188 291.253906 158.972656 288.898438 C 152.089844 286.640625 146.167969 284.113281 141.195312 281.519531 L 140.367188 281.085938 C 117.242188 267.070312 102.289062 242.96875 103.261719 216.101562 C 103.695312 195.460938 112.316406 173.097656 124.34375 149.847656 " fill-opacity="1" fill-rule="evenodd"/></g></g><g clip-path="url(#752ae0efc5)"><g clip-path="url(#eea506ea3f)"><g clip-path="url(#1511bf5883)"><path fill="#ffbd0a" d="M 128.929688 85.167969 C 129.0625 85.398438 129.171875 85.640625 129.253906 85.894531 C 129.339844 86.148438 129.402344 86.40625 129.433594 86.671875 C 129.46875 86.9375 129.476562 87.203125 129.457031 87.46875 C 129.441406 87.738281 129.394531 88 129.324219 88.257812 C 129.257812 88.515625 129.160156 88.765625 129.042969 89.003906 C 128.925781 89.242188 128.78125 89.46875 128.621094 89.679688 C 128.457031 89.890625 128.273438 90.085938 128.074219 90.261719 C 127.871094 90.4375 127.652344 90.589844 127.421875 90.722656 C 127.191406 90.855469 126.949219 90.964844 126.695312 91.050781 C 126.441406 91.136719 126.183594 91.195312 125.917969 91.230469 C 125.652344 91.261719 125.386719 91.269531 125.121094 91.253906 C 124.851562 91.234375 124.589844 91.191406 124.332031 91.121094 C 124.074219 91.050781 123.824219 90.957031 123.585938 90.835938 C 123.347656 90.71875 123.121094 90.578125 122.910156 90.414062 C 122.699219 90.25 122.503906 90.070312 122.328125 89.867188 C 122.152344 89.664062 122 89.449219 121.867188 89.21875 C 121.734375 88.984375 121.625 88.742188 121.539062 88.488281 C 121.453125 88.234375 121.394531 87.976562 121.359375 87.710938 C 121.324219 87.445312 121.316406 87.179688 121.335938 86.914062 C 121.355469 86.648438 121.398438 86.386719 121.46875 86.128906 C 121.539062 85.867188 121.632812 85.621094 121.75 85.382812 C 121.871094 85.140625 122.011719 84.917969 122.175781 84.703125 C 122.339844 84.492188 122.519531 84.300781 122.722656 84.125 C 122.921875 83.949219 123.140625 83.792969 123.371094 83.660156 C 123.605469 83.527344 123.847656 83.417969 124.101562 83.332031 C 124.351562 83.25 124.613281 83.1875 124.878906 83.15625 C 125.144531 83.121094 125.410156 83.113281 125.675781 83.128906 C 125.941406 83.148438 126.203125 83.191406 126.460938 83.261719 C 126.71875 83.332031 126.96875 83.425781 127.207031 83.546875 C 127.449219 83.664062 127.671875 83.804688 127.882812 83.96875 C 128.097656 84.132812 128.289062 84.316406 128.464844 84.515625 C 128.640625 84.71875 128.796875 84.933594 128.929688 85.167969 Z M 128.929688 85.167969 " fill-opacity="1" fill-rule="nonzero"/></g></g></g><g clip-path="url(#fc06673340)"><g clip-path="url(#dea9d0d620)"><g clip-path="url(#d8c2ee6ab5)"><path fill="#ffbd0a" d="M 114.277344 100.867188 C 114.40625 101.097656 114.515625 101.339844 114.601562 101.589844 C 114.6875 101.839844 114.746094 102.097656 114.777344 102.363281 C 114.8125 102.625 114.820312 102.890625 114.800781 103.152344 C 114.785156 103.417969 114.742188 103.679688 114.671875 103.9375 C 114.601562 104.191406 114.507812 104.4375 114.390625 104.675781 C 114.273438 104.914062 114.132812 105.136719 113.96875 105.347656 C 113.808594 105.558594 113.625 105.75 113.425781 105.925781 C 113.226562 106.101562 113.011719 106.253906 112.78125 106.386719 C 112.550781 106.515625 112.308594 106.625 112.058594 106.710938 C 111.804688 106.792969 111.546875 106.855469 111.285156 106.886719 C 111.023438 106.921875 110.757812 106.929688 110.492188 106.910156 C 110.226562 106.894531 109.96875 106.847656 109.710938 106.78125 C 109.453125 106.710938 109.207031 106.617188 108.96875 106.5 C 108.730469 106.378906 108.507812 106.242188 108.296875 106.078125 C 108.089844 105.917969 107.894531 105.734375 107.722656 105.535156 C 107.546875 105.335938 107.394531 105.121094 107.261719 104.890625 C 107.128906 104.660156 107.019531 104.417969 106.9375 104.167969 C 106.851562 103.914062 106.792969 103.65625 106.757812 103.394531 C 106.726562 103.128906 106.71875 102.867188 106.734375 102.601562 C 106.753906 102.335938 106.796875 102.078125 106.867188 101.820312 C 106.9375 101.5625 107.03125 101.316406 107.148438 101.078125 C 107.265625 100.839844 107.40625 100.617188 107.570312 100.40625 C 107.730469 100.199219 107.910156 100.003906 108.113281 99.832031 C 108.3125 99.65625 108.527344 99.503906 108.757812 99.371094 C 108.988281 99.238281 109.230469 99.128906 109.480469 99.046875 C 109.730469 98.960938 109.988281 98.902344 110.253906 98.867188 C 110.515625 98.835938 110.78125 98.828125 111.046875 98.84375 C 111.308594 98.863281 111.570312 98.90625 111.828125 98.976562 C 112.082031 99.046875 112.328125 99.140625 112.566406 99.257812 C 112.804688 99.375 113.027344 99.515625 113.238281 99.675781 C 113.449219 99.839844 113.640625 100.019531 113.816406 100.222656 C 113.992188 100.421875 114.144531 100.636719 114.277344 100.867188 Z M 114.277344 100.867188 " fill-opacity="1" fill-rule="nonzero"/></g></g></g><g clip-path="url(#4c4bbb61aa)"><g clip-path="url(#a10e2bba8a)"><g clip-path="url(#e077b0a6ec)"><path fill="#ffbd0a" d="M 149.539062 80.640625 C 149.671875 80.871094 149.777344 81.113281 149.863281 81.367188 C 149.949219 81.617188 150.007812 81.875 150.042969 82.136719 C 150.074219 82.402344 150.082031 82.664062 150.066406 82.929688 C 150.046875 83.195312 150.003906 83.457031 149.933594 83.710938 C 149.863281 83.96875 149.769531 84.214844 149.652344 84.453125 C 149.535156 84.691406 149.394531 84.914062 149.230469 85.125 C 149.070312 85.335938 148.886719 85.527344 148.6875 85.703125 C 148.488281 85.875 148.273438 86.03125 148.042969 86.160156 C 147.8125 86.292969 147.570312 86.402344 147.320312 86.488281 C 147.066406 86.570312 146.808594 86.632812 146.546875 86.664062 C 146.285156 86.699219 146.019531 86.707031 145.753906 86.6875 C 145.488281 86.671875 145.230469 86.625 144.972656 86.558594 C 144.714844 86.488281 144.46875 86.394531 144.230469 86.277344 C 143.992188 86.15625 143.769531 86.015625 143.558594 85.855469 C 143.347656 85.691406 143.15625 85.511719 142.984375 85.3125 C 142.808594 85.113281 142.65625 84.894531 142.523438 84.664062 C 142.390625 84.433594 142.28125 84.195312 142.199219 83.941406 C 142.113281 83.691406 142.054688 83.433594 142.019531 83.171875 C 141.984375 82.90625 141.976562 82.644531 141.996094 82.378906 C 142.015625 82.113281 142.058594 81.851562 142.128906 81.597656 C 142.195312 81.339844 142.289062 81.09375 142.410156 80.855469 C 142.527344 80.617188 142.667969 80.394531 142.828125 80.183594 C 142.992188 79.972656 143.171875 79.78125 143.375 79.605469 C 143.574219 79.429688 143.789062 79.277344 144.019531 79.144531 C 144.25 79.015625 144.492188 78.90625 144.742188 78.820312 C 144.992188 78.738281 145.25 78.675781 145.515625 78.644531 C 145.777344 78.609375 146.042969 78.601562 146.308594 78.621094 C 146.570312 78.636719 146.832031 78.683594 147.089844 78.75 C 147.34375 78.820312 147.59375 78.914062 147.828125 79.03125 C 148.066406 79.152344 148.292969 79.289062 148.5 79.453125 C 148.710938 79.617188 148.902344 79.796875 149.078125 79.996094 C 149.253906 80.195312 149.40625 80.414062 149.539062 80.640625 Z M 149.539062 80.640625 " fill-opacity="1" fill-rule="nonzero"/></g></g></g><g clip-path="url(#17cf966afe)"><g clip-path="url(#1df9f29d58)"><g clip-path="url(#e59c05e2e9)"><path fill="#ffbd0a" d="M 147.875 119.042969 C 145.9375 120.019531 144.070312 121.167969 142.195312 122.261719 C 141.753906 122.523438 141.355469 122.761719 140.90625 123.070312 C 140.199219 123.554688 139.382812 124.023438 138.742188 124.457031 C 137.796875 125.097656 136.855469 125.746094 135.917969 126.398438 C 133.585938 128.023438 131.160156 129.917969 128.636719 132.085938 C 126.683594 133.769531 124.890625 135.566406 123.078125 137.394531 C 123.042969 137.433594 123 137.4375 122.957031 137.40625 C 122.152344 136.847656 121.359375 136.273438 120.582031 135.679688 C 113.707031 130.425781 108.648438 126.570312 105.402344 124.113281 C 105.105469 123.886719 104.769531 123.679688 104.617188 123.375 C 104.238281 122.617188 105.011719 122.167969 105.707031 122.160156 C 106.519531 122.152344 107.328125 122.164062 108.136719 122.191406 C 111.21875 122.300781 114.300781 122.410156 117.382812 122.527344 C 117.859375 122.546875 119.59375 122.691406 119.925781 122.457031 C 120.335938 122.164062 120.199219 121.734375 120.015625 121.285156 C 118.410156 117.394531 116.824219 113.492188 115.265625 109.585938 C 114.898438 108.667969 113.574219 106.535156 115.847656 106.871094 C 116.351562 106.945312 117.070312 107.140625 117.648438 107.253906 C 121.328125 107.949219 125.007812 108.65625 128.6875 109.371094 C 129.492188 109.527344 129.597656 109.113281 129.523438 108.417969 C 129.011719 103.355469 128.5 98.289062 127.996094 93.222656 C 127.960938 92.882812 127.855469 92.355469 128.097656 92.117188 C 128.316406 91.894531 128.558594 91.996094 128.789062 92.167969 C 133.097656 95.339844 137.40625 98.519531 141.710938 101.703125 C 142.21875 102.078125 142.722656 101.738281 142.898438 101.21875 C 144.339844 97.03125 145.785156 92.847656 147.234375 88.664062 C 147.503906 87.882812 148.238281 87.890625 148.6875 88.480469 C 151.386719 92.046875 154.09375 95.609375 156.804688 99.171875 C 157.136719 99.609375 157.707031 100.695312 158.378906 100.445312 C 158.632812 100.351562 158.890625 99.824219 159.03125 99.570312 C 161.433594 95.175781 163.46875 91.417969 165.144531 88.289062 C 165.355469 87.898438 165.617188 87.484375 166.023438 87.316406 C 166.460938 87.136719 167.011719 87.285156 167.078125 87.84375 C 168.003906 95.308594 168.890625 102.777344 169.746094 110.25 C 169.757812 110.359375 169.765625 110.464844 169.765625 110.574219 C 169.765625 110.605469 169.75 110.625 169.722656 110.640625 C 169.535156 110.722656 169.378906 110.777344 169.25 110.808594 C 163.972656 112.058594 158.851562 113.832031 153.882812 116.125 C 152.246094 116.878906 150.824219 117.53125 149.308594 118.3125 C 148.832031 118.554688 148.351562 118.800781 147.875 119.042969 Z M 147.875 119.042969 " fill-opacity="1" fill-rule="nonzero"/></g></g></g><g clip-path="url(#da978e1ac6)"><g clip-path="url(#da6920a831)"><g clip-path="url(#fc24f56753)"><path fill="#ffbd0a" d="M 103.519531 117.777344 C 103.652344 118.007812 103.757812 118.25 103.84375 118.503906 C 103.929688 118.753906 103.988281 119.011719 104.023438 119.277344 C 104.054688 119.539062 104.0625 119.804688 104.046875 120.070312 C 104.027344 120.335938 103.984375 120.597656 103.914062 120.855469 C 103.84375 121.113281 103.75 121.359375 103.632812 121.597656 C 103.511719 121.835938 103.371094 122.0625 103.210938 122.269531 C 103.046875 122.480469 102.867188 122.675781 102.664062 122.851562 C 102.464844 123.023438 102.25 123.179688 102.019531 123.3125 C 101.789062 123.441406 101.546875 123.550781 101.292969 123.636719 C 101.042969 123.722656 100.78125 123.78125 100.519531 123.816406 C 100.253906 123.847656 99.988281 123.855469 99.726562 123.839844 C 99.460938 123.820312 99.199219 123.777344 98.941406 123.707031 C 98.683594 123.636719 98.4375 123.542969 98.199219 123.425781 C 97.960938 123.304688 97.734375 123.164062 97.523438 123.003906 C 97.3125 122.839844 97.121094 122.660156 96.945312 122.457031 C 96.769531 122.257812 96.617188 122.042969 96.484375 121.8125 C 96.351562 121.578125 96.242188 121.339844 96.160156 121.085938 C 96.074219 120.832031 96.015625 120.574219 95.980469 120.3125 C 95.945312 120.046875 95.9375 119.78125 95.957031 119.515625 C 95.976562 119.25 96.019531 118.992188 96.089844 118.734375 C 96.160156 118.476562 96.253906 118.230469 96.371094 117.992188 C 96.488281 117.753906 96.628906 117.527344 96.792969 117.316406 C 96.957031 117.105469 97.136719 116.914062 97.335938 116.738281 C 97.539062 116.5625 97.753906 116.410156 97.984375 116.277344 C 98.214844 116.144531 98.457031 116.035156 98.710938 115.953125 C 98.960938 115.867188 99.21875 115.808594 99.484375 115.773438 C 99.75 115.738281 100.011719 115.730469 100.277344 115.75 C 100.542969 115.769531 100.804688 115.8125 101.0625 115.882812 C 101.320312 115.953125 101.566406 116.046875 101.804688 116.164062 C 102.042969 116.28125 102.269531 116.421875 102.480469 116.585938 C 102.6875 116.746094 102.882812 116.929688 103.058594 117.128906 C 103.230469 117.332031 103.386719 117.546875 103.519531 117.777344 Z M 103.519531 117.777344 " fill-opacity="1" fill-rule="nonzero"/></g></g></g><g clip-path="url(#6bf52e09ac)"><g clip-path="url(#bba8b764cd)"><g clip-path="url(#41f19a9a76)"><path fill="#ffbd0a" d="M 169.828125 79.761719 C 169.960938 79.996094 170.070312 80.238281 170.152344 80.488281 C 170.238281 80.742188 170.296875 81 170.332031 81.265625 C 170.367188 81.53125 170.375 81.792969 170.355469 82.0625 C 170.339844 82.328125 170.292969 82.589844 170.222656 82.84375 C 170.15625 83.101562 170.058594 83.351562 169.941406 83.589844 C 169.824219 83.828125 169.683594 84.054688 169.519531 84.265625 C 169.355469 84.476562 169.175781 84.667969 168.972656 84.84375 C 168.773438 85.019531 168.554688 85.171875 168.324219 85.304688 C 168.09375 85.4375 167.851562 85.546875 167.597656 85.632812 C 167.347656 85.71875 167.085938 85.777344 166.824219 85.8125 C 166.558594 85.84375 166.292969 85.851562 166.027344 85.835938 C 165.761719 85.816406 165.5 85.773438 165.242188 85.703125 C 164.984375 85.632812 164.738281 85.539062 164.5 85.421875 C 164.257812 85.300781 164.035156 85.160156 163.824219 84.996094 C 163.613281 84.835938 163.417969 84.652344 163.246094 84.453125 C 163.070312 84.25 162.914062 84.035156 162.78125 83.804688 C 162.648438 83.570312 162.539062 83.332031 162.457031 83.078125 C 162.371094 82.824219 162.3125 82.566406 162.277344 82.300781 C 162.242188 82.039062 162.234375 81.773438 162.253906 81.507812 C 162.273438 81.238281 162.316406 80.976562 162.386719 80.722656 C 162.457031 80.464844 162.550781 80.214844 162.667969 79.976562 C 162.785156 79.738281 162.925781 79.511719 163.089844 79.300781 C 163.253906 79.089844 163.433594 78.898438 163.636719 78.722656 C 163.835938 78.546875 164.054688 78.394531 164.285156 78.261719 C 164.515625 78.128906 164.757812 78.019531 165.011719 77.933594 C 165.265625 77.847656 165.523438 77.789062 165.785156 77.753906 C 166.050781 77.722656 166.316406 77.714844 166.582031 77.730469 C 166.847656 77.75 167.109375 77.792969 167.367188 77.863281 C 167.625 77.933594 167.871094 78.027344 168.113281 78.144531 C 168.351562 78.265625 168.574219 78.40625 168.785156 78.570312 C 168.996094 78.730469 169.191406 78.914062 169.367188 79.113281 C 169.542969 79.316406 169.695312 79.53125 169.828125 79.761719 Z M 169.828125 79.761719 " fill-opacity="1" fill-rule="nonzero"/></g></g></g><g clip-path="url(#d8ebcb5743)"><g clip-path="url(#1237bd7258)"><g clip-path="url(#1cbe15965d)"><path fill="#ffbd0a" d="M 149.054688 126.492188 C 142.058594 130.347656 135.476562 135.125 129.652344 140.59375 C 128.585938 141.59375 127.597656 142.636719 126.621094 143.714844 C 126.59375 143.746094 126.570312 143.742188 126.546875 143.707031 L 124.199219 139.617188 C 124.183594 139.589844 124.183594 139.5625 124.203125 139.539062 C 124.546875 139.117188 124.90625 138.714844 125.285156 138.324219 C 128.785156 134.714844 132.609375 131.472656 136.703125 128.554688 C 141.445312 125.175781 146.363281 122.167969 151.59375 119.609375 C 157.847656 116.546875 164.203125 114.109375 170.917969 112.707031 C 170.996094 112.691406 171.050781 112.714844 171.089844 112.78125 L 173.347656 116.742188 C 173.371094 116.78125 173.375 116.824219 173.355469 116.867188 C 173.335938 116.910156 173.304688 116.9375 173.257812 116.949219 C 168.105469 118.117188 163.160156 119.757812 158.417969 121.867188 C 157.902344 122.09375 157.371094 122.296875 156.769531 122.609375 C 156.53125 122.730469 156.1875 122.789062 155.894531 122.957031 C 155.300781 123.292969 154.613281 123.546875 154.070312 123.835938 C 153.398438 124.1875 152.726562 124.53125 152.050781 124.863281 C 151.03125 125.363281 150.09375 125.921875 149.054688 126.492188 Z M 149.054688 126.492188 " fill-opacity="1" fill-rule="nonzero"/></g></g></g></svg>